<?xml version="1.0" standalone="no"?><!DOCTYPE svg PUBLIC "-//W3C//DTD SVG 1.1//EN" "http://www.w3.org/Graphics/SVG/1.1/DTD/svg11.dtd"><svg t="1533263955341" class="icon" style="" viewBox="0 0 1024 1024" version="1.1" xmlns="http://www.w3.org/2000/svg" p-id="3764" xmlns:xlink="http://www.w3.org/1999/xlink" width="100" height="100"><defs><style type="text/css"></style></defs><path d="M73.142857 804.571429l585.142857 0 0-73.142857-585.142857 0 0 73.142857zM73.142857 512l585.142857 0 0-73.142857-585.142857 0 0 73.142857zM969.142857 768q0-22.820571-16.018286-38.838857t-38.838857-16.018286-38.838857 16.018286-16.018286 38.838857 16.018286 38.838857 38.838857 16.018286 38.838857-16.018286 16.018286-38.838857zM73.142857 219.428571l585.142857 0 0-73.142857-585.142857 0 0 73.142857zM969.142857 475.428571q0-22.820571-16.018286-38.838857t-38.838857-16.018286-38.838857 16.018286-16.018286 38.838857 16.018286 38.838857 38.838857 16.018286 38.838857-16.018286 16.018286-38.838857zM969.142857 182.857143q0-22.820571-16.018286-38.838857t-38.838857-16.018286-38.838857 16.018286-16.018286 38.838857 16.018286 38.838857 38.838857 16.018286 38.838857-16.018286 16.018286-38.838857zM1024 658.285714l0 219.428571-1024 0 0-219.428571 1024 0zM1024 365.714286l0 219.428571-1024 0 0-219.428571 1024 0zM1024 73.142857l0 219.428571-1024 0 0-219.428571 1024 0z" p-id="3765" fill="#ffffff"></path></svg>